<svg xmlns="http://www.w3.org/2000/svg" width="143.917" height="143.918" viewBox="0 0 143.917 143.918">
  <g id="Group_5" data-name="Group 5" transform="translate(-313.505 -238.465)">
    <g id="Group_2" data-name="Group 2" transform="translate(313.505 247.53)" opacity="0.5">
      <path id="Path_2113" data-name="Path 2113" d="M353.515,298.074a100,100,0,0,0,5.4-16.036l10.054-36.744c.731-2.668,2.523-4.415,4.516-4.4l11.976.082,11.976-.082c1.989-.015,3.784,1.732,4.512,4.4l10.057,36.744a99.621,99.621,0,0,0,5.4,16.036,99.758,99.758,0,0,0,11.184,12.7l26.791,27.079c1.944,1.967,2.564,4.392,1.556,6.109l-6.061,10.33L444.969,364.7c-.985,1.732-3.4,2.411-6.068,1.709l-36.849-9.666a99.528,99.528,0,0,0-16.588-3.336,99.452,99.452,0,0,0-16.588,3.336l-36.849,9.666c-2.676.7-5.086.022-6.068-1.709l-5.915-10.416-6.061-10.33c-1.008-1.717-.392-4.142,1.553-6.109l26.8-27.079A100.056,100.056,0,0,0,353.515,298.074Z" transform="translate(-313.505 -240.894)" fill="#fff"/>
    </g>
    <g id="Group_3" data-name="Group 3" transform="translate(313.505 256.595)" opacity="0.25">
      <path id="Path_2114" data-name="Path 2114" d="M353.515,300.5a99.968,99.968,0,0,0,5.4-16.032l10.054-36.744c.731-2.668,2.523-4.415,4.516-4.4l11.976.082,11.976-.082c1.989-.015,3.784,1.732,4.512,4.4l10.057,36.744a99.584,99.584,0,0,0,5.4,16.032A99.805,99.805,0,0,0,428.6,313.2l26.791,27.079c1.944,1.967,2.564,4.392,1.556,6.109l-6.061,10.33-5.915,10.412c-.985,1.732-3.4,2.411-6.068,1.709l-36.849-9.662a99.537,99.537,0,0,0-16.588-3.336,99.461,99.461,0,0,0-16.588,3.336l-36.849,9.662c-2.676.7-5.086.022-6.068-1.709l-5.915-10.412-6.061-10.33c-1.008-1.717-.392-4.142,1.553-6.109l26.8-27.079A100.1,100.1,0,0,0,353.515,300.5Z" transform="translate(-313.505 -243.323)" fill="#fff"/>
    </g>
    <g id="Group_4" data-name="Group 4" transform="translate(313.505 238.465)">
      <path id="Path_2115" data-name="Path 2115" d="M353.515,295.645a100.008,100.008,0,0,0,5.4-16.036l10.054-36.741c.731-2.668,2.523-4.419,4.516-4.4l11.976.086,11.976-.086c1.989-.015,3.784,1.735,4.512,4.4l10.057,36.741a99.623,99.623,0,0,0,5.4,16.036,99.761,99.761,0,0,0,11.184,12.7l26.791,27.079c1.944,1.967,2.564,4.4,1.556,6.113l-6.061,10.33-5.915,10.412c-.985,1.732-3.4,2.411-6.068,1.709l-36.849-9.666a99.9,99.9,0,0,0-16.588-3.336,99.823,99.823,0,0,0-16.588,3.336l-36.849,9.666c-2.676.7-5.086.022-6.068-1.709l-5.915-10.412-6.061-10.33c-1.008-1.717-.392-4.146,1.553-6.113l26.8-27.079A100.059,100.059,0,0,0,353.515,295.645Z" transform="translate(-313.505 -238.465)" fill="#fff"/>
    </g>
  </g>
</svg>
